<svg xmlns="http://www.w3.org/2000/svg" viewBox="0 0 512 512">
  <rect width="512" height="512" rx="100" fill="#ffffff"/>
  
  <circle cx="256" cy="256" r="230" fill="white" stroke="#14532D" stroke-width="20" />
  
  <g transform="translate(256, 256)">
    
    <circle cx="0" cy="0" r="190" fill="none" stroke="#14532D" stroke-width="2" stroke-dasharray="2 18.9"/>

    <path d="M 0 -200 V 200 M -200 0 H 200" stroke="#14532D" stroke-width="1" opacity="0.3"/>
    
    <text x="0" y="-205" text-anchor="middle" font-size="32" font-family="Arial, sans-serif" font-weight="bold" fill="#14532D">N</text>
    <text x="205" y="12" text-anchor="middle" font-size="32" font-family="Arial, sans-serif" font-weight="bold" fill="#14532D">E</text>
    <text x="0" y="230" text-anchor="middle" font-size="32" font-family="Arial, sans-serif" font-weight="bold" fill="#14532D">S</text>
    <text x="-205" y="12" text-anchor="middle" font-size="32" font-family="Arial, sans-serif" font-weight="bold" fill="#14532D">W</text>
    
    <g transform="rotate(45)">
      <path d="M 0 0 L 15 0 L 0 -160 L -15 0 Z" fill="#14532D"/> 
      <path d="M 0 0 L 15 0 L 0 160 L -15 0 Z" fill="#b0bec5"/>
      
      <path d="M 0 0 L 0 -160 L -15 0 Z" fill="black" opacity="0.1"/>
      <path d="M 0 0 L 0 160 L 15 0 Z" fill="black" opacity="0.1"/>
    </g>

    <circle cx="0" cy="0" r="12" fill="#F59E0B" stroke="#14532D" stroke-width="2"/>

    <g transform="translate(135, -135)">
      <path 
        d="M 0 -25 L 7 -10 H 23 L 11 2 L 16 18 L 0 9 L -16 18 L -11 2 L -23 -10 H -7 Z" 
        fill="#F59E0B" 
        stroke="#14532D"
        stroke-width="1"
      />
    </g>
  </g>
</svg>