<svg xmlns="http://www.w3.org/2000/svg" viewBox="0 0 512 512">
  <defs>
    <clipPath id="circle_clip">
      <circle cx="256" cy="256" r="240" />
    </clipPath>
  </defs>

  <circle cx="256" cy="256" r="256" fill="white" />

  <circle cx="256" cy="256" r="240" fill="none" stroke="#14532D" stroke-width="20" />

  <g clip-path="url(#circle_clip)">
    <path
      d="M 0 430 
         C 150 380, 150 350, 250 300
         S 350 200, 400 130"
      fill="none"
      stroke="#2c3e50"
      stroke-width="90"
      stroke-linecap="butt"
    />

    <path
      d="M 0 430 
         C 150 380, 150 350, 250 300
         S 350 200, 400 130"
      fill="none"
      stroke="white"
      stroke-width="8"
      stroke-dasharray="30 25"
      stroke-linecap="round"
    />

    <g transform="translate(380, 120)">
      <circle cx="0" cy="0" r="45" fill="#14532D" />
      <path d="M -45 0 C -45 30, 0 60, 0 60 C 0 60, 45 30, 45 0 Z" fill="#14532D" />
      
      <path 
        d="M 0 -22 L 6 -8 H 21 L 9 2 L 14 16 L 0 7 L -14 16 L -9 2 L -21 -8 H -6 Z" 
        fill="#F59E0B" 
      />
    </g>
  </g>
</svg>